<?xml version="1.0" encoding="UTF-8"?>
<svg id="Layer_2_copy" data-name="Layer 2 copy" xmlns="http://www.w3.org/2000/svg" viewBox="0 0 946.25 803.96">
  <defs>
    <style>
      .cls-1 {
        fill: #8aaa8d;
        stroke-width: 3px;
      }

      .cls-1, .cls-2, .cls-3, .cls-4, .cls-5 {
        stroke-miterlimit: 10;
      }

      .cls-1, .cls-3 {
        stroke: #8aaa8d;
      }

      .cls-6 {
        fill: #ffdb7d;
      }

      .cls-7 {
        fill: #6a5a54;
      }

      .cls-2, .cls-3 {
        stroke-width: 8px;
      }

      .cls-2, .cls-3, .cls-4, .cls-5 {
        fill: none;
      }

      .cls-2, .cls-4 {
        stroke: #6a5a54;
      }

      .cls-2, .cls-5 {
        stroke-linecap: round;
      }

      .cls-4 {
        stroke-width: 2px;
      }

      .cls-5 {
        stroke: #ffdb7d;
        stroke-width: 6px;
      }

      .cls-8 {
        fill: #e88f73;
      }
    </style>
  </defs>
  <path class="cls-1" d="M4,424.92s8.97-164.71,146.31-295.13C287.64-.64,461.07,1.5,472.45,1.61s178.12-9.25,320.63,125.16c142.5,134.41,149.17,298.01,149.17,298.01l-341.85,35.03s-.96-62.25-65.12-98.21c-64.15-35.97-123.95.32-123.95.32,0,0-58.77,31.9-64.54,97.95L4,424.92Z"/>
  <circle class="cls-7" cx="473.33" cy="472.85" r="57.92"/>
  <line class="cls-3" x1="473.33" y1="530.77" x2="473.33" y2="803.15"/>
  <path class="cls-1" d="M463.3,655.22h20.3s3.55-19.49-10.26-21.02c0,0-14.08-1.79-10.03,21.02Z"/>
  <path class="cls-1" d="M484.05,671.6s8.95,14.13,11.04,48.67c2.09,34.54,0,82.17,0,82.17h-43.51s-2.09-47.63,0-82.17,11.04-48.67,11.04-48.67h21.44Z"/>
  <line class="cls-5" x1="462.57" y1="659.62" x2="484.01" y2="659.62"/>
  <line class="cls-5" x1="462.57" y1="663.32" x2="484.01" y2="663.32"/>
  <line class="cls-5" x1="462.57" y1="666.96" x2="484.01" y2="666.96"/>
  <ellipse class="cls-8" cx="473.33" cy="564.31" rx="9.18" ry="8.18"/>
  <ellipse class="cls-8" cx="473.33" cy="600.79" rx="9.18" ry="8.18"/>
  <ellipse class="cls-6" cx="473.33" cy="582.47" rx="12.21" ry="10.81"/>
  <line class="cls-2" x1="473.33" y1="472.85" x2="473.33" y2="348.86"/>
  <line class="cls-2" x1="473.33" y1="472.85" x2="411.34" y2="365.47"/>
  <line class="cls-2" x1="473.29" y1="472.85" x2="365.91" y2="410.86"/>
  <line class="cls-2" x1="473.29" y1="472.85" x2="535.28" y2="365.47"/>
  <line class="cls-2" x1="473.33" y1="472.85" x2="580.71" y2="410.86"/>
  <line class="cls-2" x1="4" y1="424.92" x2="473.33" y2="472.85"/>
  <line class="cls-2" x1="942.25" y1="424.78" x2="473.33" y2="472.85"/>
  <line class="cls-4" x1="462.57" y1="731.92" x2="462.57" y2="803.96"/>
  <line class="cls-4" x1="474.08" y1="714.68" x2="474.08" y2="803.96"/>
  <line class="cls-4" x1="485.79" y1="724.58" x2="485.79" y2="803.96"/>
</svg>